<svg width="27" height="27" viewBox="0 0 27 27" fill="none" xmlns="http://www.w3.org/2000/svg">
<g id="message square">
<g id="Union" filter="url(#filter0_bdi_81_176)">
<mask id="path-1-inside-1_81_176" fill="white">
<path fill-rule="evenodd" clip-rule="evenodd" d="M8.91665 4.75C6.38534 4.75 4.33331 6.80203 4.33331 9.33334V14.8333C4.33331 14.8379 4.33332 14.8425 4.33333 14.8472V21.1761C4.33333 21.9447 5.22244 22.3721 5.82264 21.8919L8.41447 19.8184C8.73955 19.5583 9.14345 19.4167 9.55975 19.4167H18.0833C20.6146 19.4167 22.6666 17.3646 22.6666 14.8333V9.33333C22.6666 6.80203 20.6146 4.75 18.0833 4.75H8.91665Z"/>
</mask>
<path fill-rule="evenodd" clip-rule="evenodd" d="M8.91665 4.75C6.38534 4.75 4.33331 6.80203 4.33331 9.33334V14.8333C4.33331 14.8379 4.33332 14.8425 4.33333 14.8472V21.1761C4.33333 21.9447 5.22244 22.3721 5.82264 21.8919L8.41447 19.8184C8.73955 19.5583 9.14345 19.4167 9.55975 19.4167H18.0833C20.6146 19.4167 22.6666 17.3646 22.6666 14.8333V9.33333C22.6666 6.80203 20.6146 4.75 18.0833 4.75H8.91665Z" fill="url(#paint0_linear_81_176)" shape-rendering="crispEdges"/>
<path d="M4.33333 14.8472H4.5625L4.5625 14.8465L4.33333 14.8472ZM5.82264 21.8919L5.96579 22.0708H5.9658L5.82264 21.8919ZM8.41447 19.8184L8.55763 19.9974L8.41447 19.8184ZM4.56248 9.33334C4.56248 6.9286 6.51191 4.97917 8.91665 4.97917V4.52083C6.25878 4.52083 4.10415 6.67547 4.10415 9.33334H4.56248ZM4.56248 14.8333V9.33334H4.10415V14.8333H4.56248ZM4.5625 14.8465C4.56249 14.8421 4.56248 14.8377 4.56248 14.8333H4.10415C4.10415 14.8382 4.10415 14.843 4.10417 14.8478L4.5625 14.8465ZM4.5625 21.1761V14.8472H4.10417V21.1761H4.5625ZM5.67948 21.7129C5.22933 22.0731 4.5625 21.7526 4.5625 21.1761H4.10417C4.10417 22.1369 5.21554 22.671 5.96579 22.0708L5.67948 21.7129ZM8.27131 19.6395L5.67948 21.7129L5.9658 22.0708L8.55763 19.9974L8.27131 19.6395ZM18.0833 19.1875H9.55975V19.6458H18.0833V19.1875ZM22.4375 14.8333C22.4375 17.2381 20.4881 19.1875 18.0833 19.1875V19.6458C20.7412 19.6458 22.8958 17.4912 22.8958 14.8333H22.4375ZM22.4375 9.33333V14.8333H22.8958V9.33333H22.4375ZM18.0833 4.97917C20.488 4.97917 22.4375 6.92859 22.4375 9.33333H22.8958C22.8958 6.67546 20.7412 4.52083 18.0833 4.52083V4.97917ZM8.91665 4.97917H18.0833V4.52083H8.91665V4.97917ZM8.55763 19.9974C8.84207 19.7698 9.19549 19.6458 9.55975 19.6458V19.1875C9.09142 19.1875 8.63702 19.3469 8.27131 19.6395L8.55763 19.9974Z" fill="url(#paint1_linear_81_176)" fill-opacity="0.7" mask="url(#path-1-inside-1_81_176)"/>
</g>
<g id="Dots" filter="url(#filter1_d_81_176)">
<circle id="Ellipse 37" cx="8.96248" cy="12.129" r="1.14583" fill="#B5B2FF"/>
<circle id="Ellipse 38" cx="13.5458" cy="12.129" r="1.14583" fill="#B5B2FF"/>
<circle id="Ellipse 39" cx="18.1292" cy="12.129" r="1.14583" fill="#B5B2FF"/>
</g>
</g>
<defs>
<filter id="filter0_bdi_81_176" x="0.333313" y="0.75" width="26.3333" height="25.3445" filterUnits="userSpaceOnUse" color-interpolation-filters="sRGB">
<feFlood flood-opacity="0" result="BackgroundImageFix"/>
<feGaussianBlur in="BackgroundImageFix" stdDeviation="1"/>
<feComposite in2="SourceAlpha" operator="in" result="effect1_backgroundBlur_81_176"/>
<feColorMatrix in="SourceAlpha" type="matrix" values="0 0 0 0 0 0 0 0 0 0 0 0 0 0 0 0 0 0 127 0" result="hardAlpha"/>
<feOffset/>
<feGaussianBlur stdDeviation="2"/>
<feComposite in2="hardAlpha" operator="out"/>
<feColorMatrix type="matrix" values="0 0 0 0 0.231373 0 0 0 0 0.407843 0 0 0 0 1 0 0 0 0.1 0"/>
<feBlend mode="normal" in2="effect1_backgroundBlur_81_176" result="effect2_dropShadow_81_176"/>
<feBlend mode="normal" in="SourceGraphic" in2="effect2_dropShadow_81_176" result="shape"/>
<feColorMatrix in="SourceAlpha" type="matrix" values="0 0 0 0 0 0 0 0 0 0 0 0 0 0 0 0 0 0 127 0" result="hardAlpha"/>
<feOffset/>
<feGaussianBlur stdDeviation="1.5"/>
<feComposite in2="hardAlpha" operator="arithmetic" k2="-1" k3="1"/>
<feColorMatrix type="matrix" values="0 0 0 0 0.231373 0 0 0 0 0.407843 0 0 0 0 1 0 0 0 0.38 0"/>
<feBlend mode="normal" in2="shape" result="effect3_innerShadow_81_176"/>
</filter>
<filter id="filter1_d_81_176" x="5.81665" y="8.98315" width="15.4584" height="6.29166" filterUnits="userSpaceOnUse" color-interpolation-filters="sRGB">
<feFlood flood-opacity="0" result="BackgroundImageFix"/>
<feColorMatrix in="SourceAlpha" type="matrix" values="0 0 0 0 0 0 0 0 0 0 0 0 0 0 0 0 0 0 127 0" result="hardAlpha"/>
<feOffset/>
<feGaussianBlur stdDeviation="1"/>
<feComposite in2="hardAlpha" operator="out"/>
<feColorMatrix type="matrix" values="0 0 0 0 0.231373 0 0 0 0 0.407843 0 0 0 0 1 0 0 0 0.35 0"/>
<feBlend mode="normal" in2="BackgroundImageFix" result="effect1_dropShadow_81_176"/>
<feBlend mode="normal" in="SourceGraphic" in2="effect1_dropShadow_81_176" result="shape"/>
</filter>
<linearGradient id="paint0_linear_81_176" x1="-1.62502" y1="-2.18779" x2="30.6164" y2="28.2076" gradientUnits="userSpaceOnUse">
<stop stop-color="#344EA6" stop-opacity="0.26"/>
<stop offset="0.505208" stop-color="#587EFF" stop-opacity="0.12"/>
<stop offset="1" stop-color="#829EFF" stop-opacity="0.04"/>
</linearGradient>
<linearGradient id="paint1_linear_81_176" x1="4.79165" y1="7.35167" x2="20.0742" y2="21.1979" gradientUnits="userSpaceOnUse">
<stop stop-color="white" stop-opacity="0.15"/>
<stop offset="1" stop-color="white" stop-opacity="0.44"/>
</linearGradient>
</defs>
</svg>
