<svg width="87" height="20" viewBox="0 0 87 20" fill="none" xmlns="http://www.w3.org/2000/svg">
<path fill-rule="evenodd" clip-rule="evenodd" d="M2.63604 3.63604C4.32387 1.94821 6.61305 1 9 1V10L9 19C6.61305 19 4.32387 18.0518 2.63604 16.364C0.948211 14.6761 0 12.3869 0 10C0 7.61305 0.948212 5.32387 2.63604 3.63604ZM7 4C5.89543 4 5 4.89543 5 6V14C5 15.1046 5.89543 16 7 16V4Z" fill="#6889FF"/>
<path fill-rule="evenodd" clip-rule="evenodd" d="M17.9291 5.62987C18.306 6.53982 18.5 7.51509 18.5 8.5H11V1C11.9849 1 12.9602 1.19399 13.8701 1.5709C14.7801 1.94781 15.6069 2.50026 16.3033 3.1967C16.9997 3.89314 17.5522 4.71993 17.9291 5.62987ZM13 8C13.8284 8 14.5 7.32843 14.5 6.5C14.5 5.67157 13.8284 5 13 5C12.1716 5 11.5 5.67157 11.5 6.5C11.5 7.32843 12.1716 8 13 8Z" fill="#7000FF"/>
<path fill-rule="evenodd" clip-rule="evenodd" d="M13.8701 18.4291C12.9602 18.806 11.9849 19 11 19V11.5H18.5C18.5 12.4849 18.306 13.4602 17.9291 14.3701C17.5522 15.2801 16.9997 16.1069 16.3033 16.8033C15.6069 17.4997 14.7801 18.0522 13.8701 18.4291ZM11.5 13.5C11.5 14.3284 12.1716 15 13 15C13.8284 15 14.5 14.3284 14.5 13.5C14.5 12.6716 13.8284 12 13 12C12.1716 12 11.5 12.6716 11.5 13.5Z" fill="#7000FF"/>
<path d="M28.82 16.224C28.1907 16.224 27.5987 16.0693 27.044 15.76C26.5 15.44 26.0627 14.976 25.732 14.368C25.4013 13.76 25.236 13.024 25.236 12.16V11.904C25.236 11.04 25.4013 10.304 25.732 9.696C26.0627 9.088 26.5 8.62933 27.044 8.32C27.588 8 28.18 7.84 28.82 7.84C29.3 7.84 29.7 7.89867 30.02 8.016C30.3507 8.12267 30.6173 8.26133 30.82 8.432C31.0227 8.60267 31.1773 8.784 31.284 8.976H31.572V4.8H33.588V16H31.604V15.04H31.316C31.1347 15.3387 30.852 15.6107 30.468 15.856C30.0947 16.1013 29.5453 16.224 28.82 16.224ZM29.428 14.464C30.0467 14.464 30.564 14.2667 30.98 13.872C31.396 13.4667 31.604 12.88 31.604 12.112V11.952C31.604 11.184 31.396 10.6027 30.98 10.208C30.5747 9.80267 30.0573 9.6 29.428 9.6C28.8093 9.6 28.292 9.80267 27.876 10.208C27.46 10.6027 27.252 11.184 27.252 11.952V12.112C27.252 12.88 27.46 13.4667 27.876 13.872C28.292 14.2667 28.8093 14.464 29.428 14.464ZM39.5991 16.224C38.8098 16.224 38.1005 16.064 37.4711 15.744C36.8418 15.424 36.3458 14.96 35.9831 14.352C35.6205 13.744 35.4391 13.0133 35.4391 12.16V11.904C35.4391 11.0507 35.6205 10.32 35.9831 9.712C36.3458 9.104 36.8418 8.64 37.4711 8.32C38.1005 8 38.8098 7.84 39.5991 7.84C40.3885 7.84 41.0978 8 41.7271 8.32C42.3565 8.64 42.8525 9.104 43.2151 9.712C43.5778 10.32 43.7591 11.0507 43.7591 11.904V12.16C43.7591 13.0133 43.5778 13.744 43.2151 14.352C42.8525 14.96 42.3565 15.424 41.7271 15.744C41.0978 16.064 40.3885 16.224 39.5991 16.224ZM39.5991 14.432C40.2178 14.432 40.7298 14.2347 41.1351 13.84C41.5405 13.4347 41.7431 12.8587 41.7431 12.112V11.952C41.7431 11.2053 41.5405 10.6347 41.1351 10.24C40.7405 9.83467 40.2285 9.632 39.5991 9.632C38.9805 9.632 38.4685 9.83467 38.0631 10.24C37.6578 10.6347 37.4551 11.2053 37.4551 11.952V12.112C37.4551 12.8587 37.6578 13.4347 38.0631 13.84C38.4685 14.2347 38.9805 14.432 39.5991 14.432ZM45.62 19.2V8.064H47.604V9.024H47.892C48.0733 8.71467 48.356 8.44267 48.74 8.208C49.124 7.96267 49.6733 7.84 50.388 7.84C51.028 7.84 51.62 8 52.164 8.32C52.708 8.62933 53.1453 9.088 53.476 9.696C53.8067 10.304 53.972 11.04 53.972 11.904V12.16C53.972 13.024 53.8067 13.76 53.476 14.368C53.1453 14.976 52.708 15.44 52.164 15.76C51.62 16.0693 51.028 16.224 50.388 16.224C49.908 16.224 49.5027 16.1653 49.172 16.048C48.852 15.9413 48.5907 15.8027 48.388 15.632C48.196 15.4507 48.0413 15.2693 47.924 15.088H47.636V19.2H45.62ZM49.78 14.464C50.4093 14.464 50.9267 14.2667 51.332 13.872C51.748 13.4667 51.956 12.88 51.956 12.112V11.952C51.956 11.184 51.748 10.6027 51.332 10.208C50.916 9.80267 50.3987 9.6 49.78 9.6C49.1613 9.6 48.644 9.80267 48.228 10.208C47.812 10.6027 47.604 11.184 47.604 11.952V12.112C47.604 12.88 47.812 13.4667 48.228 13.872C48.644 14.2667 49.1613 14.464 49.78 14.464ZM59.4391 16.224C58.6498 16.224 57.9511 16.0587 57.3431 15.728C56.7458 15.3867 56.2765 14.912 55.9351 14.304C55.6045 13.6853 55.4391 12.96 55.4391 12.128V11.936C55.4391 11.104 55.6045 10.384 55.9351 9.776C56.2658 9.15733 56.7298 8.68267 57.3271 8.352C57.9245 8.01067 58.6178 7.84 59.4071 7.84C60.1858 7.84 60.8631 8.016 61.4391 8.368C62.0151 8.70933 62.4631 9.18933 62.7831 9.808C63.1031 10.416 63.2631 11.1253 63.2631 11.936V12.624H57.4871C57.5085 13.168 57.7111 13.6107 58.0951 13.952C58.4791 14.2933 58.9485 14.464 59.5031 14.464C60.0685 14.464 60.4845 14.3413 60.7511 14.096C61.0178 13.8507 61.2205 13.5787 61.3591 13.28L63.0071 14.144C62.8578 14.4213 62.6391 14.7253 62.3511 15.056C62.0738 15.376 61.7005 15.6533 61.2311 15.888C60.7618 16.112 60.1645 16.224 59.4391 16.224ZM57.5031 11.12H61.2151C61.1725 10.6613 60.9858 10.2933 60.6551 10.016C60.3351 9.73867 59.9138 9.6 59.3911 9.6C58.8471 9.6 58.4151 9.73867 58.0951 10.016C57.7751 10.2933 57.5778 10.6613 57.5031 11.12ZM68.6735 16.224C67.8842 16.224 67.1855 16.0587 66.5775 15.728C65.9802 15.3867 65.5108 14.912 65.1695 14.304C64.8388 13.6853 64.6735 12.96 64.6735 12.128V11.936C64.6735 11.104 64.8388 10.384 65.1695 9.776C65.5002 9.15733 65.9642 8.68267 66.5615 8.352C67.1588 8.01067 67.8522 7.84 68.6415 7.84C69.4202 7.84 70.0975 8.016 70.6735 8.368C71.2495 8.70933 71.6975 9.18933 72.0175 9.808C72.3375 10.416 72.4975 11.1253 72.4975 11.936V12.624H66.7215C66.7428 13.168 66.9455 13.6107 67.3295 13.952C67.7135 14.2933 68.1828 14.464 68.7375 14.464C69.3028 14.464 69.7188 14.3413 69.9855 14.096C70.2522 13.8507 70.4548 13.5787 70.5935 13.28L72.2415 14.144C72.0922 14.4213 71.8735 14.7253 71.5855 15.056C71.3082 15.376 70.9348 15.6533 70.4655 15.888C69.9962 16.112 69.3988 16.224 68.6735 16.224ZM66.7375 11.12H70.4495C70.4068 10.6613 70.2202 10.2933 69.8895 10.016C69.5695 9.73867 69.1482 9.6 68.6255 9.6C68.0815 9.6 67.6495 9.73867 67.3295 10.016C67.0095 10.2933 66.8122 10.6613 66.7375 11.12ZM75.1559 19.2V17.44H79.4759C79.7745 17.44 79.9239 17.28 79.9239 16.96V14.96H79.6359C79.5505 15.1413 79.4172 15.3227 79.2359 15.504C79.0545 15.6853 78.8092 15.8347 78.4999 15.952C78.1905 16.0693 77.7959 16.128 77.3159 16.128C76.6972 16.128 76.1532 15.9893 75.6839 15.712C75.2252 15.424 74.8679 15.0293 74.6119 14.528C74.3559 14.0267 74.2279 13.4507 74.2279 12.8V8.064H76.2439V12.64C76.2439 13.2373 76.3879 13.6853 76.6759 13.984C76.9745 14.2827 77.3959 14.432 77.9399 14.432C78.5585 14.432 79.0385 14.2293 79.3799 13.824C79.7212 13.408 79.8919 12.832 79.8919 12.096V8.064H81.9079V17.408C81.9079 17.952 81.7479 18.384 81.4279 18.704C81.1079 19.0347 80.6812 19.2 80.1479 19.2H75.1559ZM85.4153 16.224C84.9886 16.224 84.6259 16.0853 84.3273 15.808C84.0393 15.52 83.8953 15.152 83.8953 14.704C83.8953 14.256 84.0393 13.8933 84.3273 13.616C84.6259 13.328 84.9886 13.184 85.4153 13.184C85.8526 13.184 86.2153 13.328 86.5033 13.616C86.7913 13.8933 86.9353 14.256 86.9353 14.704C86.9353 15.152 86.7913 15.52 86.5033 15.808C86.2153 16.0853 85.8526 16.224 85.4153 16.224Z" fill="white"/>
</svg>
