<svg width="32" height="31" viewBox="0 0 32 31" fill="none" xmlns="http://www.w3.org/2000/svg">
<path fill-rule="evenodd" clip-rule="evenodd" d="M4.53985 4.53984C7.44666 1.63303 11.3891 0 15.5 0V15.5L15.5 31C11.3891 31 7.44666 29.367 4.53984 26.4602C1.63303 23.5533 0 19.6109 0 15.5C0 11.3891 1.63303 7.44666 4.53985 4.53984ZM12.0555 5.16669C10.1532 5.16669 8.61108 6.70881 8.61108 8.61113V22.3889C8.61108 24.2912 10.1532 25.8334 12.0555 25.8334V5.16669Z" fill="#6889FF"/>
<path fill-rule="evenodd" clip-rule="evenodd" d="M30.8778 7.97367C31.5269 9.54079 31.861 11.2204 31.861 12.9167H18.9443L18.9443 0C20.6406 0 22.3202 0.334099 23.8873 0.983223C25.4545 1.63235 26.8784 2.58378 28.0778 3.7832C29.2772 4.98263 30.2287 6.40655 30.8778 7.97367ZM22.3888 12.0556C23.8156 12.0556 24.9722 10.899 24.9722 9.47225C24.9722 8.04551 23.8156 6.88892 22.3888 6.88892C20.9621 6.88892 19.8055 8.04551 19.8055 9.47225C19.8055 10.899 20.9621 12.0556 22.3888 12.0556Z" fill="#7000FF"/>
<path fill-rule="evenodd" clip-rule="evenodd" d="M23.8873 30.0168C22.3202 30.6659 20.6405 31 18.9443 31V18.0834L31.861 18.0834C31.861 19.7796 31.5269 21.4592 30.8777 23.0264C30.2286 24.5935 29.2772 26.0174 28.0778 27.2168C26.8783 28.4163 25.4544 29.3677 23.8873 30.0168ZM19.8055 21.5277C19.8055 22.9545 20.9621 24.1111 22.3888 24.1111C23.8156 24.1111 24.9722 22.9545 24.9722 21.5277C24.9722 20.101 23.8156 18.9444 22.3888 18.9444C20.9621 18.9444 19.8055 20.101 19.8055 21.5277Z" fill="#7000FF"/>
</svg>
